# Blender v2.77 (sub 0) OBJ File: ''
# www.blender.org
mtllib door fenetre.mtl
o Box049_Untitled.157
v 0.155823 0.306310 0.769280
v 0.155823 0.306310 -0.157990
v 0.155822 2.551373 0.769279
v 0.155822 2.551373 -0.157990
v 0.142603 0.306310 0.769280
v 0.142603 0.306310 -0.157990
v 0.142602 2.551373 0.769279
v 0.142602 2.551373 -0.157990
vt 1.0000 0.0000
vt 1.0000 1.0000
vt 0.0000 1.0000
vt 0.0000 0.0000
vt 0.0000 0.0000
vt 1.0000 0.0000
vt 1.0000 1.0000
vt 0.0000 1.0000
vt 0.0000 0.0000
vt 1.0000 0.0000
vt 1.0000 1.0000
vt 0.0000 1.0000
vt 1.0000 0.0000
vt 0.0000 1.0000
vt 0.0000 0.0000
vt 1.0000 0.0000
vt 1.0000 1.0000
vt 0.0000 1.0000
vt 0.0000 0.0000
vt 1.0000 1.0000
vn -1.0000 -0.0000 0.0000
vn 1.0000 0.0000 -0.0000
vn 0.0000 1.0000 -0.0000
vn 0.0000 0.0000 1.0000
vn 0.0000 -1.0000 0.0000
vn 0.0000 -0.0000 -1.0000
usemtl glass
s 1
f 1/1/1 3/2/1 4/3/1 2/4/1
f 5/5/2 6/6/2 8/7/2 7/8/2
f 1/9/3 2/10/3 6/11/3 5/12/3
f 2/4/4 4/13/4 8/7/4 6/14/4
f 4/15/5 3/16/5 7/17/5 8/18/5
f 3/19/6 1/1/6 5/20/6 7/8/6
o Box030_Untitled.060
v 0.112775 0.306310 -0.206199
v 0.112775 0.306310 0.721071
v 0.112774 2.551373 -0.206199
v 0.112774 2.551373 0.721071
v 0.099555 0.306310 -0.206199
v 0.099555 0.306310 0.721071
v 0.099554 2.551373 -0.206199
v 0.099554 2.551373 0.721071
vt 1.0000 0.0000
vt 1.0000 1.0000
vt 0.0000 1.0000
vt 0.0000 0.0000
vt 0.0000 0.0000
vt 1.0000 0.0000
vt 1.0000 1.0000
vt 0.0000 1.0000
vt 0.0000 0.0000
vt 1.0000 0.0000
vt 1.0000 1.0000
vt 0.0000 1.0000
vt 1.0000 0.0000
vt 0.0000 1.0000
vt 0.0000 0.0000
vt 1.0000 0.0000
vt 1.0000 1.0000
vt 0.0000 1.0000
vt 0.0000 0.0000
vt 1.0000 1.0000
vn 1.0000 0.0000 0.0000
vn -1.0000 -0.0000 -0.0000
vn 0.0000 -1.0000 0.0000
vn 0.0000 0.0000 1.0000
vn 0.0000 1.0000 0.0000
vn 0.0000 -0.0000 -1.0000
usemtl glass
s 1
f 9/21/7 11/22/7 12/23/7 10/24/7
f 13/25/8 14/26/8 16/27/8 15/28/8
f 9/29/9 10/30/9 14/31/9 13/32/9
f 10/24/10 12/33/10 16/27/10 14/34/10
f 12/35/11 11/36/11 15/37/11 16/38/11
f 11/39/12 9/21/12 13/40/12 15/28/12
